<?xml version="1.0" encoding="utf-8"?>
<!-- Generator: Adobe Illustrator 26.0.2, SVG Export Plug-In . SVG Version: 6.00 Build 0)  -->
<svg version="1.1" id="outline" xmlns="http://www.w3.org/2000/svg" xmlns:xlink="http://www.w3.org/1999/xlink" x="0px" y="0px"
	 viewBox="0 0 430 430" style="enable-background:new 0 0 430 430;" xml:space="preserve">
<style type="text/css">
	.st0{fill:url(#SVGID_1_);}
	.st1{fill:url(#SVGID_00000116234961292182401590000002625332669197541264_);}
	.st2{fill:url(#SVGID_00000156559312839956757350000015022689469888538037_);}
	.st3{fill:url(#SVGID_00000049194369116012204900000018163303610602786962_);}
	.st4{fill:url(#SVGID_00000153665604396291756120000009741572997131005352_);}
	.st5{fill:url(#SVGID_00000021804128194037447540000001936074834504040093_);}
	.st6{fill:url(#SVGID_00000128463516930791995940000009653286006824401598_);}
	.st7{fill:url(#SVGID_00000034782368815577735500000013807004866905826981_);}
	.st8{fill:url(#SVGID_00000135680421574117729320000007546949460617887125_);}
	.st9{fill:url(#SVGID_00000064337023410145144030000004474609417740230306_);}
	.st10{fill:url(#SVGID_00000152255981442441161760000007913716158183234238_);}
	.st11{fill:url(#SVGID_00000049220707509513107890000000274474167846508475_);}
	.st12{fill:url(#SVGID_00000028286820579520793530000007844086250812986246_);}
	.st13{fill:url(#SVGID_00000147191464276694145490000012369215945386603154_);}
	.st14{fill:url(#SVGID_00000029046453296497447630000015703862634049914003_);}
	.st15{fill:url(#SVGID_00000076573989202277844990000006254174385009867150_);}
	.st16{fill:url(#SVGID_00000150088114563281901620000017205375145012726157_);}
	.st17{fill:url(#SVGID_00000130639424685116229410000002845872645395798417_);}
	.st18{fill:url(#SVGID_00000054954728326750990530000016780968697525346234_);}
	.st19{fill:url(#SVGID_00000043416829743442992540000009067197143408099769_);}
	.st20{fill:url(#SVGID_00000168799233938369478220000006009048785832012946_);}
	.st21{fill:url(#SVGID_00000114752601194634943060000000124852836557018771_);}
	.st22{fill:url(#SVGID_00000154421316294274181040000001749534418499496115_);}
	.st23{fill:url(#SVGID_00000150812247830871568200000006059970089644378519_);}
	.st24{fill:url(#SVGID_00000141453306523037479670000014998598296140327048_);}
	.st25{fill:url(#SVGID_00000098918807652046785540000012822664019279821749_);}
	.st26{fill:url(#SVGID_00000138544261222952724590000010972840902089827459_);}
	.st27{fill:url(#SVGID_00000015345312170912102700000010088764014721171602_);}
	.st28{fill:url(#SVGID_00000027566590115253545760000011812195251131711395_);}
	.st29{fill:url(#SVGID_00000021078557885673185110000010500757046953782446_);}
	.st30{fill:url(#SVGID_00000024686731765250411710000006247708469013511312_);}
	.st31{fill:url(#SVGID_00000078748807437116752430000015405586016392262810_);}
	.st32{fill:url(#SVGID_00000023262733665872096300000007050848317255547552_);}
	.st33{fill:url(#SVGID_00000034082905717086094900000001744335509328527256_);}
	.st34{fill:url(#SVGID_00000088133724734071019250000007665733104734771374_);}
	.st35{fill:url(#SVGID_00000135689622585685020810000018187267983411552926_);}
	.st36{fill:url(#SVGID_00000083773018027350685610000015770549211275135140_);}
	.st37{fill:url(#SVGID_00000182513996030249840030000003927922149026201271_);}
</style>
<linearGradient id="SVGID_1_" gradientUnits="userSpaceOnUse" x1="59.1203" y1="104.2001" x2="326.0302" y2="371.11">
	<stop  offset="0" style="stop-color:#cb5eee"/>
	<stop  offset="1" style="stop-color:#4be1ec"/>
</linearGradient>
<path class="st0" d="M381.11,239.93c0-0.08-0.01-0.16-0.01-0.25c-0.01-0.17-0.03-0.34-0.06-0.51c-0.01-0.06-0.01-0.11-0.03-0.17
	c-0.04-0.23-0.1-0.46-0.17-0.69c0-0.01-0.01-0.01-0.01-0.02c-0.07-0.22-0.15-0.42-0.25-0.63c-0.01-0.02-0.02-0.04-0.02-0.06
	l-26.33-56.57c-7.28-15.64-23.15-25.74-40.44-25.74H279.8v-38.38c0-3.31-2.69-6-6-6H54.9c-3.31,0-6,2.69-6,6v58.33
	c0,3.31,2.69,6,6,6s6-2.69,6-6v-52.33H267.8v38.33c0,0.02,0,0.04,0,0.06v78.85v67.4H153.56c-2.85-16.29-17.09-28.71-34.18-28.71
	s-31.33,12.42-34.18,28.71H60.9v-62.8c0-3.31-2.69-6-6-6s-6,2.69-6,6v68.8c0,3.31,2.69,6,6,6H85.2c2.85,16.28,17.09,28.7,34.18,28.7
	s31.32-12.42,34.18-28.7H273.8c0.03,0,0.06,0,0.1,0h16.56c2.85,16.29,17.09,28.71,34.18,28.71s31.33-12.42,34.18-28.71h16.3
	c3.31,0,6-2.69,6-6v-73.39C381.12,240.07,381.11,240,381.11,239.93z M313.79,167.29c12.64,0,24.24,7.38,29.56,18.81l22.36,48.04
	H279.8v-66.85H313.79z M119.38,336.24c-12.52,0-22.7-10.18-22.71-22.69c0,0,0-0.01,0-0.01c0,0,0-0.01,0-0.01
	c0.01-12.52,10.19-22.7,22.71-22.7c12.52,0,22.71,10.19,22.71,22.71S131.9,336.24,119.38,336.24z M324.64,336.24
	c-12.52,0-22.71-10.19-22.71-22.71s10.19-22.71,22.71-22.71c12.19,0,22.17,9.66,22.68,21.73c-0.05,0.32-0.09,0.65-0.09,0.98
	s0.03,0.66,0.09,0.98C346.81,326.59,336.83,336.24,324.64,336.24z M369.12,307.54h-10.3c-2.85-16.29-17.09-28.71-34.18-28.71
	s-31.33,12.42-34.18,28.71H279.8v-61.39h89.32V307.54z M203.77,216H28c-3.31,0-6-2.69-6-6s2.69-6,6-6h175.77l-24.36-20.01
	c-2.56-2.1-2.93-5.88-0.83-8.45s5.88-2.93,8.45-0.83l37.27,30.61c0.01,0.01,0.02,0.01,0.03,0.02c0.32,0.26,0.61,0.55,0.87,0.87
	c0.01,0.02,0.03,0.04,0.04,0.05c0.11,0.14,0.21,0.28,0.31,0.42c0.01,0.02,0.03,0.04,0.04,0.07c0.09,0.14,0.18,0.29,0.26,0.44
	c0.01,0.01,0.01,0.02,0.01,0.03c0.09,0.16,0.16,0.33,0.23,0.5c0,0,0,0,0,0c0.28,0.7,0.44,1.46,0.44,2.26s-0.16,1.56-0.44,2.26
	c0,0,0,0,0,0c-0.07,0.17-0.15,0.34-0.23,0.5c-0.01,0.01-0.01,0.02-0.01,0.03c-0.08,0.15-0.17,0.3-0.26,0.44
	c-0.01,0.02-0.03,0.04-0.04,0.07c-0.1,0.15-0.2,0.29-0.31,0.42c-0.01,0.02-0.03,0.04-0.04,0.05c-0.15,0.18-0.31,0.35-0.47,0.52
	c-0.03,0.03-0.06,0.06-0.09,0.09c-0.1,0.09-0.2,0.19-0.31,0.28l-37.29,30.63c-1.12,0.92-2.46,1.36-3.8,1.36
	c-1.73,0-3.45-0.75-4.64-2.19c-2.1-2.56-1.73-6.34,0.83-8.45L203.77,216z"/>
</svg>
