<svg xmlns="http://www.w3.org/2000/svg" enable-background="new 0 0 148.349 42.101" viewBox="0 0 148.349 42.101"><g class="nc-icon-wrapper"><path d="M0 23.278c0-3.442 1.076-6.385 3.227-8.828 2.151-2.443 4.837-3.665 8.058-3.665 2.165 0 3.831.708 4.997 2.124l.208-1.541h8.995l-2.707 19.239c-.528 3.831-1.964 6.704-4.31 8.62-2.346 1.916-5.809 2.873-10.39 2.873-2.748 0-5.233-.416-7.454-1.249l1.041-7.704c1.916.805 3.956 1.207 6.121 1.207 3.692 0 5.732-1.361 6.121-4.081l.042-.458c-1.472 1.472-3.373 2.207-5.705 2.207s-4.289-.812-5.872-2.436C.791 27.963 0 25.86 0 23.278zm9.245-1.124c0 .722.229 1.298.687 1.728.458.431 1.076.645 1.853.645.916 0 1.693-.319 2.332-.958.638-.638.958-1.401.958-2.29 0-.694-.229-1.256-.687-1.687-.458-.43-1.062-.645-1.812-.645-.916 0-1.701.312-2.353.937-.652.625-.978 1.382-.978 2.27z" fill="#BE7374"></path><path d="M29.15 11.368h9.078L35.23 32.773h-9.078l2.998-21.405zm.333-5.954c0-1.499.569-2.776 1.707-3.831C32.328.528 33.689 0 35.271 0c1.305 0 2.374.389 3.207 1.166.833.777 1.249 1.749 1.249 2.915 0 1.527-.569 2.811-1.707 3.852-1.139 1.041-2.498 1.562-4.081 1.562-1.305 0-2.374-.388-3.207-1.166-.833-.777-1.249-1.749-1.249-2.915z" fill="#BE7374"></path><path d="M40.643 11.368h3.665c.527-3.22 1.589-5.559 3.186-7.017 1.596-1.458 4.019-2.186 7.267-2.186 1.721 0 3.345.223 4.872.666l-.958 6.913a11.362 11.362 0 0 0-2.499-.292c-.916 0-1.582.132-1.999.396-.416.264-.666.715-.75 1.353l-.042.167h5.039l-1.041 7.496h-5.039l-1.957 13.909h-9.078l1.957-13.909h-3.664l1.041-7.496z" fill="#BE7374"></path><path d="M64.836 32.814l-4.747-21.446h9.536l1.291 11.452 4.581-11.452h9.952l-15.282 30.15H60.089l4.747-8.704z" fill="#BE7374"></path><g><path d="M87.676 11.368h8.912l-.291 1.957c1.804-1.693 3.845-2.54 6.122-2.54 1.332 0 2.499.312 3.498.937 1 .624 1.735 1.506 2.207 2.644 2.054-2.387 4.497-3.581 7.329-3.581 2.193 0 3.803.694 4.831 2.082 1.027 1.389 1.541 2.971 1.541 4.747 0 .556-.042 1.139-.125 1.749l-1.874 13.409h-9.078l1.499-10.827c.055-.333.083-.638.083-.916 0-1.277-.528-1.915-1.582-1.915-1.361 0-2.18.944-2.457 2.832l-1.499 10.827h-9.078l1.499-10.827c.055-.333.083-.638.083-.916 0-1.277-.528-1.915-1.582-1.915-1.361 0-2.18.944-2.457 2.832l-1.499 10.827H84.68l2.996-21.406z"></path><path d="M127.736 14.492c2.554-2.471 5.76-3.706 9.619-3.706 3.054 0 5.649.895 7.788 2.686 2.137 1.791 3.206 4.102 3.206 6.934 0 3.692-1.284 6.774-3.852 9.244-2.568 2.471-5.782 3.706-9.64 3.706-3.054 0-5.65-.895-7.787-2.686-2.138-1.791-3.207-4.102-3.207-6.934 0-3.692 1.291-6.773 3.873-9.244zm5.996 9.952c.472.444 1.124.666 1.957.666 1.055 0 1.901-.347 2.54-1.041.638-.694.958-1.541.958-2.54 0-.777-.236-1.388-.708-1.832-.473-.444-1.125-.666-1.957-.666-1.055 0-1.902.347-2.54 1.041-.639.694-.958 1.541-.958 2.54 0 .777.236 1.388.708 1.832z"></path></g></g></svg>